<?xml version="1.0" encoding="UTF-8" standalone="no"?>
<svg width="256px" height="256px" viewBox="0 0 256 256" version="1.1" xmlns="http://www.w3.org/2000/svg" xmlns:xlink="http://www.w3.org/1999/xlink">
    <!-- Generator: Sketch 3.7.2 (28276) - http://www.bohemiancoding.com/sketch -->
    <title>Clip</title>
    <desc>Created with Sketch.</desc>
    <defs>
        <radialGradient cx="56.0776893%" cy="43.4767611%" fx="56.0776893%" fy="43.4767611%" r="43.5435912%" id="radialGradient-1">
            <stop stop-color="#DDF6BC" offset="0%"></stop>
            <stop stop-color="#B8E986" offset="100%"></stop>
        </radialGradient>
        <radialGradient cx="50%" cy="50%" fx="50%" fy="50%" r="50.953851%" id="radialGradient-2">
            <stop stop-color="#DDF6BC" offset="0%"></stop>
            <stop stop-color="#D0F2A9" offset="25.9605587%"></stop>
            <stop stop-color="#B8E986" offset="100%"></stop>
        </radialGradient>
    </defs>
    <g id="Page-1" stroke="none" stroke-width="1" fill="none" fill-rule="evenodd">
        <g id="Clip">
            <polygon id="Path-360" stroke="#4A4A4A" stroke-width="5" points="34 165 128.5 129 221 175 119.816216 223"></polygon>
            <path d="M129,32 L129,129" id="Path-362" stroke="#979797" stroke-width="6"></path>
            <polygon id="Path-366" stroke="#4A4A4A" stroke-width="5" fill="url(#radialGradient-1)" points="72 78 142 58 142 160 72 188"></polygon>
            <polygon id="Path-366" stroke="#4A4A4A" stroke-width="5" fill="url(#radialGradient-2)" transform="translate(166.215328, 122.500000) scale(-1, 1) translate(-166.215328, -122.500000) " points="142 77 190.430656 58 190.430656 160 142 187"></polygon>
            <polygon id="Path-360" stroke="#4A4A4A" stroke-width="5" points="36 58.5 129 32 220 68 120 98"></polygon>
            <path d="M32,58 L32,165" id="Path-362" stroke="#4A4A4A" stroke-width="6"></path>
            <path d="M119,98 L119,223" id="Path-362" stroke="#4A4A4A" stroke-width="6"></path>
            <path d="M223.5,68 L223.5,175" id="Path-362" stroke="#4A4A4A" stroke-width="5"></path>
            <polygon id="Path-387" fill="url(#radialGradient-2)" points="40 59 74 75 142 56 190 75 213 68 128.5 34"></polygon>
            <polygon id="Path-388" fill="url(#radialGradient-2)" points="193 79 221 70 221 174 193 187"></polygon>
            <polygon id="Path-388" fill="url(#radialGradient-2)" points="33 60 70 77 70 188 33 162"></polygon>
        </g>
    </g>
</svg>