<?xml version="1.0" encoding="UTF-8" standalone="no"?>
<svg width="196px" height="196px" viewBox="0 0 196 196" version="1.1" xmlns="http://www.w3.org/2000/svg" xmlns:xlink="http://www.w3.org/1999/xlink">
    <!-- Generator: Sketch 3.7.2 (28276) - http://www.bohemiancoding.com/sketch -->
    <title>LightViz-logo</title>
    <desc>Created with Sketch.</desc>
    <defs></defs>
    <g id="Page-1" stroke="none" stroke-width="1" fill="none" fill-rule="evenodd">
        <g id="LightViz">
            <path d="M80.9730567,112.723023 C81.0372907,110.548304 79.3235488,105.233218 80.3031002,101.184664 C81.4095115,96.61179 85.8304904,89.6683156 87.4251744,86.2202761 C87.9385885,85.1101676 89.3236143,90.6517944 90.054115,89.0017931 C90.2828932,88.4850455 89.2614211,83.5236351 90.054115,80.6128618 C90.6694377,78.3533954 93.7782654,71.359441 95.3566886,68.0336727 L105.109923,77.9130038 C102.094535,90.8698382 97.7501571,109.30114 93.4948178,127.290568 L81.3806647,113.871874 L80.9730567,112.723023 Z M118.253564,154.715519 C119.164249,152.98907 121.91259,146.40693 123.777349,139.944702 C125.425901,134.23173 126.203987,128.505884 126.39998,127.489914 C126.825288,125.285248 123.212092,128.913718 123.449457,127.489914 C123.686822,126.06611 125.863313,125.118452 126.699503,122.7492 C127.535692,120.379948 127.485479,117.373291 127.485479,116.054283 C127.485479,112.943399 128.340227,106.295487 128.132482,103.474404 C127.924738,100.65332 123.537927,105.391998 123.449457,104.406792 C123.384325,103.681481 125.47279,101.695517 126.674748,99.7566336 L108.770683,81.6210923 C106.335066,96.1660143 103.055006,116.012677 100.009732,134.507056 L118.253564,154.715519 Z" id="Combined-Shape" fill="#258E44"></path>
            <path d="M95.2468986,65.9898603 C95.8769931,64.6405858 96.3475425,63.6844615 96.476459,63.5017204 C97.1980147,62.4789047 98.9942444,67.9139963 99.285337,66.66259 C99.6185374,65.2301622 98.7378039,58.9122124 98.7378039,55.4028664 C98.7378039,53.5562104 100.542246,51.1363172 101.990221,47.8169937 C103.293946,44.8283449 104.229115,40.9016279 104.672678,39.6167539 C106.591153,34.0594818 107.009653,21.5393613 107.009653,12.2962666 C107.009652,3.05317204 120.998952,45.6272096 124.010019,64.4092532 C124.159964,65.3445632 121.651001,66.9772006 121.86878,68.4172338 C122.086558,69.857267 124.234627,66.7338881 124.357732,67.5959108 C125.496003,75.5665013 127.957635,92.6193924 127.718149,94.9791183 C127.630445,95.8432854 127.053828,96.8350532 126.362501,97.7934545 L108.831696,79.8750286 C110.719664,68.5914084 112.130663,60.3040388 112.585298,57.9686396 C114.501535,48.1251957 110.705612,50.2598334 109.24259,57.9686394 C108.926382,59.6347678 107.369513,66.4397416 105.123049,76.0843806 L95.2468986,65.9898603 Z" id="Combined-Shape" fill="#1C4678"></path>
            <path d="M80.6010703,114.436753 C80.5927514,114.718397 80.5546117,114.947369 80.4769388,115.114098 C79.7995131,116.568224 77.8844734,107.643837 77.0056282,109.178085 C76.4753111,110.103889 72.9090714,117.046532 72.5496125,118.907883 C72.1901536,120.769234 74.5238186,132.677582 73.0453926,134.057 C71.5669666,135.436417 70.07052,125.401566 69.7494966,126.338959 C69.5740973,126.851128 64.9793283,143.283589 68.0608063,155.993851 C71.0240197,168.216303 76.4642032,178.822902 80.9475453,180.33464 C83.4478678,169.818492 88.2264058,149.703916 93.1228313,129.004298 L81.0086782,115.585604 L80.6010703,114.436753 Z M117.881578,156.429249 C117.850291,156.488561 117.821173,156.542142 117.794335,156.589791 C115.664157,160.371666 102.021346,179.714937 92.6590628,179.714937 C92.6039085,179.714937 92.5491748,179.714991 92.4948579,179.715099 C94.0347498,170.315712 96.7291566,153.885057 99.6377456,136.220786 L117.881578,156.429249 Z" id="Combined-Shape" fill="#AC262C"></path>
        </g>
    </g>
</svg>