<?xml version="1.0" encoding="UTF-8" standalone="no"?>
<svg width="256px" height="256px" viewBox="0 0 256 256" version="1.1" xmlns="http://www.w3.org/2000/svg" xmlns:xlink="http://www.w3.org/1999/xlink">
    <!-- Generator: Sketch 3.7.2 (28276) - http://www.bohemiancoding.com/sketch -->
    <title>SliceOrthogonal</title>
    <desc>Created with Sketch.</desc>
    <defs>
        <radialGradient cx="56.0776893%" cy="43.4767611%" fx="56.0776893%" fy="43.4767611%" r="43.5435912%" id="radialGradient-1">
            <stop stop-color="#DDF6BC" offset="0%"></stop>
            <stop stop-color="#B8E986" offset="100%"></stop>
        </radialGradient>
    </defs>
    <g id="Page-1" stroke="none" stroke-width="1" fill="none" fill-rule="evenodd">
        <g id="SliceOrthogonal" stroke="#4A4A4A">
            <polygon id="Path-360" stroke-width="5" points="34 165 128.5 129 221 175 119.816216 223"></polygon>
            <path d="M129,32 L129,129" id="Path-362" stroke-width="6"></path>
            <polygon id="Path-366" stroke-width="5" fill="url(#radialGradient-1)" transform="translate(146.715328, 114.000000) scale(-1, 1) translate(-146.715328, -114.000000) " points="103 75.9854015 190.430656 41 190.430656 137 103 187"></polygon>
            <polygon id="Path-366" stroke-width="5" fill="url(#radialGradient-1)" points="72 78 166 51 165 149 72 188"></polygon>
            <polygon id="Path-366" stroke-width="5" fill="url(#radialGradient-1)" transform="translate(166.215328, 122.000000) scale(-1, 1) translate(-166.215328, -122.000000) " points="142 76 190.430656 57 190.430656 160 142 187"></polygon>
            <polygon id="Path-360" stroke-width="5" points="36 58.5 129 32 220 68 120 98"></polygon>
            <path d="M32,58 L32,165" id="Path-362" stroke-width="6"></path>
            <path d="M119,98 L119,223" id="Path-362" stroke-width="6"></path>
            <path d="M224,68 L224,175" id="Path-362" stroke-width="6"></path>
        </g>
    </g>
</svg>