<?xml version="1.0" encoding="UTF-8" standalone="no"?>
<svg width="256px" height="256px" viewBox="0 0 256 256" version="1.1" xmlns="http://www.w3.org/2000/svg" xmlns:xlink="http://www.w3.org/1999/xlink">
    <!-- Generator: Sketch 3.8.3 (29802) - http://www.bohemiancoding.com/sketch -->
    <title>Threshold</title>
    <desc>Created with Sketch.</desc>
    <defs>
        <radialGradient cx="50%" cy="50%" fx="50%" fy="50%" r="50.953851%" id="radialGradient-1">
            <stop stop-color="#DDF6BC" offset="0%"></stop>
            <stop stop-color="#D0F2A9" offset="25.9605587%"></stop>
            <stop stop-color="#B8E986" offset="100%"></stop>
        </radialGradient>
        <polygon id="path-2" points="0 11.0521739 38.4130435 0 76 15.30301 34.6956522 28.0555184"></polygon>
        <mask id="mask-3" maskContentUnits="userSpaceOnUse" maskUnits="objectBoundingBox" x="0" y="0" width="76" height="28.0555184" fill="white">
            <use xlink:href="#path-2"></use>
        </mask>
        <polygon id="path-4" points="35.6956522 25.5504409 35.6956522 105.290439 2 82.123865 2 9"></polygon>
        <mask id="mask-5" maskContentUnits="userSpaceOnUse" maskUnits="objectBoundingBox" x="0" y="0" width="33.6956522" height="96.2904387" fill="white">
            <use xlink:href="#path-4"></use>
        </mask>
        <polygon id="path-6" points="74.9092441 13 74.9092441 86.7260796 33.414943 104.969846 33 25.5866771"></polygon>
        <mask id="mask-7" maskContentUnits="userSpaceOnUse" maskUnits="objectBoundingBox" x="0" y="0" width="41.9092441" height="91.9698459" fill="white">
            <use xlink:href="#path-6"></use>
        </mask>
        <polygon id="path-8" points="63 36.2482817 63 86.3875791 0 44.1922246 0 0.907383466"></polygon>
        <mask id="mask-9" maskContentUnits="userSpaceOnUse" maskUnits="objectBoundingBox" x="0" y="0" width="63" height="85.4801956" fill="white">
            <use xlink:href="#path-8"></use>
        </mask>
        <polygon id="path-10" points="60 36.819398 98.9728261 25 98.9728261 67.5498328 60.3858696 86.0668896"></polygon>
        <mask id="mask-11" maskContentUnits="userSpaceOnUse" maskUnits="objectBoundingBox" x="0" y="0" width="38.9728261" height="61.0668896" fill="white">
            <use xlink:href="#path-10"></use>
        </mask>
        <polygon id="path-12" points="70 111 132 145 94 157 30 121"></polygon>
        <mask id="mask-13" maskContentUnits="userSpaceOnUse" maskUnits="objectBoundingBox" x="0" y="0" width="102" height="46" fill="white">
            <use xlink:href="#path-12"></use>
        </mask>
        <polygon id="path-14" points="0 8.08695652 28.3043478 0 56 11.1973244 25.5652174 20.5284281"></polygon>
        <mask id="mask-15" maskContentUnits="userSpaceOnUse" maskUnits="objectBoundingBox" x="0" y="0" width="56" height="20.5284281" fill="white">
            <use xlink:href="#path-14"></use>
        </mask>
        <polygon id="path-16" points="0 8.08695652 25.5652174 20.5284281 25.565218 59.0000005 0 41.367893"></polygon>
        <mask id="mask-17" maskContentUnits="userSpaceOnUse" maskUnits="objectBoundingBox" x="0" y="0" width="25.565218" height="50.913044" fill="white">
            <use xlink:href="#path-16"></use>
        </mask>
        <polygon id="path-18" points="25.2608696 20.5284281 56 11.1973244 56 44.7892977 25.5652174 59.4080268"></polygon>
        <mask id="mask-19" maskContentUnits="userSpaceOnUse" maskUnits="objectBoundingBox" x="0" y="0" width="30.7391304" height="48.2107023" fill="white">
            <use xlink:href="#path-18"></use>
        </mask>
    </defs>
    <g id="Page-1" stroke="none" stroke-width="1" fill="none" fill-rule="evenodd">
        <g id="Threshold">
            <polygon id="Path-360" stroke="#4A4A4A" stroke-width="5" points="34 165 128.5 129 221 175 119.816216 223"></polygon>
            <path d="M129,32 L129,129" id="Path-362" stroke="#979797" stroke-width="6"></path>
            <g id="Group" transform="translate(150.000000, 87.000000)" stroke="#4A4A4A" stroke-width="6" fill="url(#radialGradient-1)">
                <use id="Path-360" mask="url(#mask-3)" xlink:href="#path-2"></use>
                <use id="Path-399" mask="url(#mask-5)" xlink:href="#path-4"></use>
                <use id="Path-399" mask="url(#mask-7)" xlink:href="#path-6"></use>
            </g>
            <g id="Group" transform="translate(32.000000, 119.000000)" stroke="#4A4A4A" stroke-width="6" fill="url(#radialGradient-1)">
                <use id="Path-399" mask="url(#mask-9)" xlink:href="#path-8"></use>
                <use id="Path-399" mask="url(#mask-11)" xlink:href="#path-10"></use>
            </g>
            <use id="Path-360" stroke="#4A4A4A" mask="url(#mask-13)" stroke-width="6" fill="url(#radialGradient-1)" xlink:href="#path-12"></use>
            <g id="Group" transform="translate(101.000000, 32.000000)" stroke="#4A4A4A" stroke-width="4" fill="url(#radialGradient-1)">
                <use id="Path-360" mask="url(#mask-15)" xlink:href="#path-14"></use>
                <use id="Path-399" mask="url(#mask-17)" xlink:href="#path-16"></use>
                <use id="Path-399" mask="url(#mask-19)" xlink:href="#path-18"></use>
            </g>
            <polygon id="Path-360" stroke="#4A4A4A" stroke-width="5" points="36 58.5 129 32 220 68 120 98"></polygon>
            <path d="M32,58 L32,165" id="Path-362" stroke="#4A4A4A" stroke-width="6"></path>
            <path d="M119,98 L119,223" id="Path-362" stroke="#4A4A4A" stroke-width="6"></path>
            <path d="M223.5,68 L223.5,175" id="Path-362" stroke="#4A4A4A" stroke-width="5"></path>
        </g>
    </g>
</svg>