<?xml version="1.0" encoding="UTF-8"?>
<svg width="549px" height="196px" viewBox="0 0 549 196" version="1.1" xmlns="http://www.w3.org/2000/svg" xmlns:xlink="http://www.w3.org/1999/xlink">
    <!-- Generator: Sketch 43.2 (39069) - http://www.bohemiancoding.com/sketch -->
    <title>LightViz</title>
    <desc>Created with Sketch.</desc>
    <defs></defs>
    <g id="Page-1" stroke="none" stroke-width="1" fill="none" fill-rule="evenodd">
        <g id="LightViz">
            <path d="M77.6326863,90.9915459 C78.5507605,89.739177 79.5216735,88.4043287 80.5077776,87.03055 C80.5890173,86.917718 80.6293068,86.7798123 80.6220415,86.6412467 C80.2151827,79.4015254 79.2746521,72.1373902 78.023033,65.1094762 C77.9391514,64.6363738 77.359906,64.4535992 77.0118304,64.7848369 C76.9596521,64.8343246 76.9068133,64.8844721 76.8539745,64.9339598 C76.3242655,65.4354352 75.5257391,64.7307303 75.9570358,64.1428164 C76.3975793,63.5417057 76.850672,62.9214598 77.3116906,62.2866975 C77.4101029,62.1514311 77.448411,61.9792139 77.4167077,61.8149148 C73.1592213,39.8159803 68.0609374,27.2461033 64.9612812,19.4356238 C64.7083154,18.7975623 63.7552355,19.0192672 63.8074138,19.704177 C65.4870272,41.817923 57.9766521,51.0232959 57.0678247,54.6444762 C57.0513126,54.7098 57.0473496,54.7731443 57.053294,54.8397877 C57.2989944,57.6869803 57.581682,60.5222959 57.8524809,63.085759 C57.9290971,63.810259 56.8848703,64.019427 56.678799,63.3206607 C56.5097148,62.7499025 56.3472355,62.1738656 56.1900401,61.5958492 C56.0348261,61.0264107 55.2409231,60.9980377 55.047401,61.5555992 C53.6953882,65.4380746 52.0567248,69.0889475 50.064702,73.232718 C50.0178076,73.3303738 49.9973325,73.4425459 50.0079003,73.550759 C50.1882127,75.4728615 50.3790929,77.3520746 50.5646892,79.1045992 C50.6413054,79.8310787 49.5950971,80.0362877 49.3883653,79.334882 C49.2457006,78.8505623 49.1069987,78.3629434 48.9722598,77.8733451 C48.8262926,77.3415172 48.10108,77.2709148 47.8573611,77.7657918 C46.2074695,81.1243574 44.3495251,84.8926811 42.2498432,89.3657098 C42.2049302,89.4613861 42.1851157,89.5689393 42.1943625,89.6745131 C42.4532726,92.7585869 42.7603981,95.8525582 43.0536535,98.6284885 C43.1309302,99.3556279 42.084722,99.5621566 41.8779902,98.8607508 C41.5015137,97.5846279 41.1527776,96.2827713 40.8317819,94.9941115 C40.694401,94.4418287 39.9394666,94.3718861 39.704334,94.8898574 C38.6251014,97.2745049 37.4930301,99.8280705 36.2949103,102.615218 C36.2566021,102.704956 36.2394295,102.803931 36.2466949,102.901587 C36.5353268,106.692345 36.9190686,110.61771 37.2829959,114.056116 C37.3596121,114.783255 36.3140643,114.989784 36.106672,114.288378 C35.6423511,112.714669 35.2209616,111.10203 34.8418432,109.522382 C34.6998389,108.930509 33.8649859,108.900816 33.682692,109.480812 C27.2647591,129.939689 37.1826021,145.738144 42.0523582,151.531505 C42.3660886,151.904312 42.9677904,151.765747 43.0919616,151.294624 L66.8601756,53.3168861 C66.8601756,53.3168861 66.930187,51.6158287 68.1692569,51.4502098 C69.4089873,51.2852508 69.0008076,53.2278082 69.0008076,53.2278082 L52.3948932,151.286706 C52.333468,151.761128 52.8301528,152.118759 53.2588076,151.905632 C70.2530872,143.468308 76.8407648,128.738128 79.5903639,111.086853 C79.6782084,110.524013 78.9979088,110.17364 78.5837847,110.565583 C78.5659516,110.582739 78.5481185,110.599894 78.529625,110.61705 C77.9979345,111.119185 77.1987476,110.41448 77.6307049,109.824587 C78.4424409,108.717382 79.2957876,107.544853 80.1636649,106.339333 C80.226411,106.252894 80.2653796,106.15128 80.2766078,106.045046 C80.7911257,101.127288 80.9450187,96.0736033 80.8135822,90.9796689 C80.8003725,90.4570787 80.1636649,90.2004025 79.7911514,90.5672713 C79.3750458,90.9770295 78.9549773,91.3828287 78.5329274,91.7813697 C78.0018974,92.2841648 77.2000686,91.5814393 77.6326863,90.9915459" id="Fill-1" fill="#233881"></path>
            <path d="M134.23229,67.6849484 C134.23229,63.3623623 137.612652,60.1212475 141.66737,60.1212475 C145.72539,60.1212475 148.294016,63.0931492 148.294016,67.1465221 C148.157956,71.6023951 145.047732,74.710223 140.720234,74.710223 C136.801576,74.710223 134.23229,71.7383213 134.23229,67.6849484 L134.23229,67.6849484 Z M119.626324,151.307293 L132.201959,85.9228172 L143.425581,85.9228172 L130.849946,151.307293 L119.626324,151.307293 Z" id="Fill-3" fill="#ffffff"></path>
            <path d="M201.431291,95.6504504 C199.40096,94.7042455 195.346242,93.4888275 190.613207,93.4888275 C174.251672,93.4888275 163.02871,110.508639 162.89265,126.720811 C162.89265,133.879373 165.461276,142.391918 175.468285,142.391918 C185.069756,142.391918 194.804645,130.233778 197.237871,117.397987 L201.431291,95.6504504 Z M151.26349,166.167791 C155.18545,168.598627 161.676037,170.491036 168.572161,170.491036 C179.523663,170.491036 188.177998,164.816446 192.099298,147.120303 L194.263047,137.39234 L193.857509,137.39234 C188.177998,146.715164 180.201321,151.306963 171.141448,151.306963 C158.023555,151.306963 151.26349,140.230295 151.26349,128.610582 C151.127431,106.457905 167.488965,84.4378561 192.776955,84.4378561 C200.348095,84.4378561 208.596893,86.5994791 213.735466,89.0303152 L203.728458,143.06627 C201.025753,156.844967 197.373931,166.437004 190.477147,172.24686 C183.98656,177.918811 175.196165,179.542008 167.625025,179.542008 C159.645706,179.542008 152.207984,177.649598 148.017207,174.946909 L151.26349,166.167791 Z" id="Fill-4" fill="#ffffff"></path>
            <path d="M221.427012,151.307029 L239.682818,55.3932582 L250.90578,55.3932582 L242.793042,97.5402869 L243.06252,97.5402869 C248.606632,89.5714467 256.585951,84.4379221 266.456239,84.4379221 C273.893961,84.4379221 282.684356,89.0303811 282.684356,101.998799 C282.684356,105.511766 282.278818,109.698426 281.601821,113.075467 L274.299499,151.307029 L263.076537,151.307029 L270.378199,113.616533 C270.783737,111.185697 271.189275,108.213795 271.189275,104.565561 C271.189275,98.4864918 268.35051,93.7581066 261.048848,93.7581066 C252.394513,93.7581066 241.440369,103.891209 238.735683,118.616111 L232.650634,151.307029 L221.427012,151.307029 Z" id="Fill-5" fill="#ffffff"></path>
            <path d="M322.963375,68.3618742 L319.583012,85.9227512 L335.269532,85.9227512 L333.511981,94.7045094 L317.825462,94.7045094 L311.739753,126.451862 C311.064737,130.097456 310.5238,133.474497 310.5238,136.986805 C310.5238,140.904911 312.41741,143.20246 316.744908,143.20246 C318.636537,143.20246 320.530148,143.066534 322.018881,142.797321 L321.477283,151.57644 C319.449594,152.388698 316.067251,152.793837 312.822948,152.793837 C302.81594,152.793837 299.0307,146.714768 299.0307,140.094632 C299.0307,136.313112 299.436238,132.528292 300.383373,127.800567 L306.87396,94.7045094 L297.405907,94.7045094 L299.164118,85.9227512 L308.496111,85.9227512 L311.334215,71.1978496 L322.963375,68.3618742 Z" id="Fill-6" fill="#ffffff"></path>
            <path d="M354.731714,151.307029 L343.372032,60.2569098 L354.865132,60.2569098 L361.491778,118.616111 C362.574973,127.936295 363.113929,133.205086 363.249989,139.148889 L363.655527,139.148889 C365.955336,133.474299 368.660022,126.720877 373.662535,117.12884 L402.599705,60.2569098 L415.03994,60.2569098 L367.035889,151.307029 L354.731714,151.307029 Z" id="Fill-7" fill="#ffffff"></path>
            <path d="M422.328591,67.6849484 C422.328591,63.3623623 425.708953,60.1212475 429.763671,60.1212475 C433.821691,60.1212475 436.390317,63.0931492 436.390317,67.1465221 C436.254257,71.6023951 433.144033,74.710223 428.816535,74.710223 C424.897877,74.710223 422.328591,71.7383213 422.328591,67.6849484 L422.328591,67.6849484 Z M407.722625,151.307293 L420.29826,85.9228172 L431.521882,85.9228172 L418.945586,151.307293 L407.722625,151.307293 Z" id="Fill-8" fill="#ffffff"></path>
            <path d="M433.274743,144.417548 L465.050677,109.159868 C470.594128,103.080798 474.24661,99.7017779 478.573448,95.5144582 L478.709508,95.1093189 L445.173381,95.1093189 L446.930931,85.9224213 L493.987847,85.9224213 L492.502416,93.3528352 L461.129378,128.205376 C455.315789,134.556298 451.800027,138.069266 447.608589,141.71486 L447.608589,142.119999 L483.848081,142.119999 L482.08987,151.306897 L432.05813,151.306897 L433.274743,144.417548 Z" id="Fill-9" fill="#ffffff"></path>
            <polygon id="Fill-10" fill="#ffffff" points="73.4732819 140.751631 64.9853889 150.502029 107.572142 150.502029 109.463111 140.774066"></polygon>
            <path d="M79.7908211,90.5672713 C79.3747155,90.9770295 78.9553076,91.3828287 78.5332576,91.7813697 C78.0015672,92.2841648 77.2003989,91.5814393 77.6330165,90.9915459 C77.9976043,90.4933697 78.3760622,89.9740787 78.7558411,89.4528082 L65.3162919,74.9852426 L52.3952234,151.286706 C52.3331378,151.761128 52.8298225,152.118759 53.2584773,151.905632 C70.2534174,143.468308 76.8404345,128.738128 79.5900337,111.087513 C79.6778782,110.524013 78.9982391,110.17364 78.584115,110.565583 C78.5662819,110.582739 78.5477883,110.599894 78.5299552,110.61705 C77.9982648,111.119185 77.1984174,110.41448 77.6310351,109.824587 C78.4427712,108.717382 79.2961178,107.544853 80.1639951,106.339333 C80.2260807,106.252894 80.2657098,106.15128 80.2762776,106.045046 C80.7907954,101.127288 80.9453489,96.0742631 80.8139124,90.9796689 C80.8007027,90.4570787 80.1633347,90.2004025 79.7908211,90.5672713" id="Fill-11" fill="#258E44"></path>
            <path d="M54.6186141,63.468002 L54.5532261,62.9275963 C53.301607,66.3105758 51.8201391,69.5807234 50.0652304,73.232916 C50.0176755,73.3305717 49.9972004,73.442084 50.0077682,73.5502971 C50.1880806,75.4730594 50.3789608,77.3516127 50.5645571,79.1041373 C50.6411733,79.8306168 49.594965,80.0358258 49.3882332,79.3350799 C49.2455685,78.8507602 49.1075271,78.3631414 48.9727882,77.873543 C48.8261605,77.3417152 48.1009479,77.2711127 47.8578894,77.7659898 C46.2079979,81.1245553 44.349393,84.8928791 42.2497111,89.3659078 C42.2047981,89.461584 42.1849836,89.5691373 42.1942304,89.6747111 C42.453801,92.7587848 42.760266,95.8527561 43.0541819,98.6286865 C43.1307981,99.3558258 42.0845899,99.5623545 41.8778581,98.8609488 C41.5013816,97.5848258 41.1526455,96.2829693 40.8323103,94.9943094 C40.6949294,94.4420266 39.9393345,94.3714242 39.7048623,94.8900553 C38.6249693,97.274043 37.492898,99.8282684 36.2954387,102.615416 C36.25647,102.705154 36.2392974,102.804129 36.2472233,102.901125 C36.5358552,106.691883 36.9189365,110.617908 37.2828638,114.055654 C37.35948,114.783453 36.3139322,114.989982 36.1065399,114.288576 C35.642219,112.714207 35.2208295,111.102227 34.8417111,109.52192 C34.6997068,108.930707 33.8648538,108.900355 33.6825599,109.48101 C27.264627,129.939887 37.18247,145.738342 42.0522261,151.531703 C42.3659565,151.90451 42.9683188,151.765945 43.0918295,151.294822 L62.3727083,71.8155881 L54.6186141,63.468002 Z" id="Fill-12" fill="#258E44"></path>
            <path d="M58.2833153,116.516248 L52.3950913,151.28697 C52.3336662,151.760732 52.8296904,152.118363 53.2583452,151.905896 C62.7072439,147.215121 68.9356177,140.576511 73.0788402,132.575339 L58.2833153,116.516248 Z" id="Fill-13" fill="#AC252C"></path>
            <path d="M42.4590188,102.340914 L42.452414,102.284168 C42.2093555,102.286807 41.9669575,102.161438 41.877792,101.861213 C41.5013155,100.58443 41.1525795,99.2832332 40.8322442,97.9939135 C40.6948633,97.4416307 39.9392685,97.3716881 39.7047963,97.8903193 C38.6249033,100.274307 37.492832,102.827873 36.2953726,105.61568 C36.256404,105.705418 36.2392314,105.804393 36.2471572,105.901389 C36.5357892,109.692147 36.9188705,113.617512 37.2827977,117.055918 C37.359414,117.783057 36.3138662,117.989586 36.1064739,117.28818 C35.6421529,115.714471 35.2207635,114.101832 34.8416451,112.522184 C34.7003013,111.930311 33.8647877,111.900618 33.6824939,112.481274 C27.2645609,132.939491 37.182404,148.737946 42.0521601,154.531307 C42.3658904,154.904774 42.9682528,154.766209 43.0917635,154.294426 L52.9362927,113.713188 L42.4590188,102.340914 Z" id="Fill-14" fill="#AC252C"></path>
        </g>
    </g>
</svg>
