<?xml version="1.0" encoding="UTF-8" standalone="no"?>
<svg width="196px" height="196px" viewBox="0 0 196 196" version="1.1" xmlns="http://www.w3.org/2000/svg" xmlns:xlink="http://www.w3.org/1999/xlink">
    <!-- Generator: Sketch 3.7.2 (28276) - http://www.bohemiancoding.com/sketch -->
    <title>LightVizlogo</title>
    <desc>Created with Sketch.</desc>
    <defs></defs>
    <g id="Page-1" stroke="none" stroke-width="1" fill="none" fill-rule="evenodd">
        <g id="LightViz">
            <path d="M80.9730567,113.723023 C81.0372907,111.548304 79.3235488,106.233218 80.3031002,102.184664 C81.4095115,97.61179 85.8304904,90.6683156 87.4251744,87.2202761 C87.9385885,86.1101676 89.3236143,91.6517944 90.054115,90.0017931 C90.2828932,89.4850455 89.2614211,84.5236351 90.054115,81.6128618 C90.6148259,79.5539302 93.2460704,73.5636181 94.903066,70 L104.76433,80.396991 C101.768061,93.2548356 97.5902039,110.977341 93.4948178,128.290568 L81.3806647,114.871874 L80.9730567,113.723023 Z M118.253564,155.715519 C119.164249,153.98907 121.91259,147.40693 123.777349,140.944702 C125.425901,135.23173 126.203987,129.505884 126.39998,128.489914 C126.825288,126.285248 123.212092,129.913718 123.449457,128.489914 C123.686822,127.06611 125.863313,126.118452 126.699503,123.7492 C127.535692,121.379948 127.485479,118.373291 127.485479,117.054283 C127.485479,114.143249 128.233933,108.135041 128.159873,105.063528 L126.848024,103.680411 C125.480029,104.174307 123.50847,106.063969 123.449457,105.406792 C123.402027,104.878609 124.496645,103.681904 125.559311,102.321687 L108.486205,84.3210612 C106.083312,98.6894075 102.937978,117.723405 100.009732,135.507056 L118.253564,155.715519 Z" id="Combined-Shape" fill="#258E44"></path>
            <path d="M94,70.5210666 C94.7522273,68.8953738 95.3312032,67.7076227 95.476459,67.5017204 C96.1980147,66.4789047 97.9942444,71.9139963 98.285337,70.66259 C98.6185374,69.2301622 97.7378039,62.9122124 97.7378039,59.4028664 C97.7378039,57.5562104 99.5422463,55.1363172 100.990221,51.8169937 C102.293946,48.8283449 103.229115,44.9016279 103.672678,43.6167539 C105.591153,38.0594818 106.009653,25.5393613 106.009653,16.2962666 C106.009652,7.05317204 119.998952,49.6272096 123.010019,68.4092532 C123.159964,69.3445632 120.651001,70.9772006 120.86878,72.4172338 C121.086558,73.857267 123.234627,70.7338881 123.357732,71.5959108 C124.496003,79.5665013 126.957635,96.6193924 126.718149,98.9791183 C126.599507,100.148128 125.586176,101.550641 124.604488,102.788185 L107.656932,84.9199294 C109.632354,73.1045293 111.116741,64.3755518 111.585298,61.9686396 C113.501535,52.1251957 109.705612,54.2598334 108.24259,61.9686394 C107.916733,63.6856124 106.273337,70.8598563 103.915475,80.9752129 L94,70.5210666 Z M125.784393,104.03219 C126.604512,103.650414 127.28625,103.631369 127.365152,104.702827 C127.387426,105.005297 127.397486,105.351759 127.397695,105.733136 L125.784393,104.03219 Z" id="Combined-Shape" fill="#1C4678"></path>
            <path d="M80.6010703,114.436753 C80.5927514,114.718397 80.5546117,114.947369 80.4769388,115.114098 C79.7995131,116.568224 77.8844734,107.643837 77.0056282,109.178085 C76.4753111,110.103889 72.9090714,117.046532 72.5496125,118.907883 C72.1901536,120.769234 74.5238186,132.677582 73.0453926,134.057 C71.5669666,135.436417 70.07052,125.401566 69.7494966,126.338959 C69.5740973,126.851128 64.9793283,143.283589 68.0608063,155.993851 C71.0240197,168.216303 76.4642032,178.822902 80.9475453,180.33464 C83.4478678,169.818492 88.2264058,149.703916 93.1228313,129.004298 L81.0086782,115.585604 L80.6010703,114.436753 Z M117.881578,156.429249 C117.850291,156.488561 117.821173,156.542142 117.794335,156.589791 C115.664157,160.371666 102.021346,179.714937 92.6590628,179.714937 C92.6039085,179.714937 92.5491748,179.714991 92.4948579,179.715099 C94.0347498,170.315712 96.7291566,153.885057 99.6377456,136.220786 L117.881578,156.429249 Z" id="Combined-Shape" fill="#AC262C"></path>
        </g>
    </g>
</svg>